<?xml version="1.0" standalone="no"?>
<!DOCTYPE svg PUBLIC "-//W3C//DTD SVG 20010904//EN"
 "http://www.w3.org/TR/2001/REC-SVG-20010904/DTD/svg10.dtd">
<svg version="1.0" xmlns="http://www.w3.org/2000/svg"
 width="1890.000000pt" height="1417.000000pt" viewBox="0 0 1890.000000 1417.000000"
 preserveAspectRatio="xMidYMid meet">

<g transform="translate(0.000000,1417.000000) scale(0.100000,-0.100000)"
fill="#000000" stroke="none">
<path d="M0 7085 l0 -7085 9450 0 9450 0 0 7085 0 7085 -9450 0 -9450 0 0
-7085z m11334 4320 c-85 -325 -84 -468 8 -740 64 -191 122 -312 654 -1376 533
-1066 579 -1149 733 -1323 236 -268 551 -445 925 -523 66 -13 122 -25 123 -27
5 -5 -264 -102 -338 -122 -222 -59 -869 -56 -1301 7 -478 68 -773 225 -1003
531 -110 145 -172 256 -420 748 -240 478 -311 597 -415 701 -100 102 -158 108
-299 33 -97 -51 -178 -118 -471 -397 -411 -390 -581 -563 -634 -645 -59 -89
-96 -189 -96 -259 0 -107 40 -223 97 -278 16 -16 345 -177 793 -389 421 -199
794 -379 830 -401 183 -110 303 -227 383 -375 57 -104 78 -189 84 -326 5 -111
3 -130 -21 -215 -47 -165 -145 -325 -313 -511 -49 -53 -218 -222 -378 -374
-159 -153 -398 -382 -530 -509 -776 -747 -803 -772 -943 -872 -163 -117 -320
-185 -455 -199 -175 -18 -407 65 -622 223 -67 49 -430 406 -1416 1392 -1386
1386 -1457 1460 -1540 1625 -34 68 -39 87 -39 147 0 124 61 270 176 421 27 35
102 117 169 184 222 222 1325 1285 1325 1277 0 -8 -31 -62 -247 -438 -182
-317 -264 -495 -298 -647 -20 -94 -11 -154 41 -256 91 -181 184 -280 1480
-1573 1077 -1074 1189 -1178 1347 -1249 114 -52 168 -15 675 468 184 174 353
343 377 375 68 89 88 154 82 260 -4 76 -10 98 -42 164 -45 91 -124 174 -221
231 -38 23 -359 181 -714 352 -972 470 -1010 491 -1122 607 -96 102 -130 194
-143 398 -9 121 3 185 49 277 90 179 239 361 561 685 239 241 3137 3054 3142
3050 1 -1 -14 -61 -33 -132z m749 -7162 c24 -46 87 -133 347 -472 67 -89 118
-167 131 -200 42 -109 24 -201 -76 -406 -47 -96 -151 -277 -239 -414 l-28 -44
-26 34 c-13 19 -77 86 -141 149 -146 146 -276 234 -516 350 -255 124 -328 199
-329 336 -1 56 3 67 39 120 82 120 324 354 637 614 l142 118 17 -68 c10 -37
29 -90 42 -117z m-1679 128 c10 -74 64 -171 183 -327 59 -78 156 -205 214
-282 125 -163 153 -225 146 -317 -8 -116 -105 -324 -285 -613 l-77 -123 -39
48 c-66 81 -207 215 -288 276 -107 80 -211 140 -360 207 -143 65 -198 100
-251 159 -65 72 -95 163 -75 225 20 58 101 160 228 286 108 107 206 195 520
462 30 26 60 47 66 48 6 0 14 -22 18 -49z"/>
</g>
</svg>
